<svg width="37" height="37" viewBox="0 0 37 37" fill="none" xmlns="http://www.w3.org/2000/svg">
<path d="M21.3937 18.1955C21.3937 19.9618 19.9616 21.3938 18.1953 21.3938C16.4289 21.3938 14.9969 19.9618 14.9969 18.1955C14.9969 16.4291 16.4289 14.9971 18.1953 14.9971C19.9616 14.9971 21.3937 16.4291 21.3937 18.1955Z" fill="#134A70"/>
<path d="M23.597 8.52881H12.7936C10.442 8.52881 8.52905 10.4417 8.52905 12.7933V23.5968C8.52905 25.9484 10.442 27.8613 12.7936 27.8613H23.597C25.9486 27.8613 27.8615 25.9484 27.8615 23.5968V12.7933C27.8615 10.4417 25.9486 8.52881 23.597 8.52881ZM18.1953 23.5257C15.2559 23.5257 12.8646 21.1344 12.8646 18.1951C12.8646 15.2557 15.2559 12.8644 18.1953 12.8644C21.1346 12.8644 23.5259 15.2557 23.5259 18.1951C23.5259 21.1344 21.1346 23.5257 18.1953 23.5257ZM24.3078 13.1487C23.7189 13.1487 23.2416 12.6714 23.2416 12.0826C23.2416 11.4937 23.7189 11.0164 24.3078 11.0164C24.8966 11.0164 25.3739 11.4937 25.3739 12.0826C25.3739 12.6714 24.8966 13.1487 24.3078 13.1487Z" fill="#134A70"/>
<path d="M26.7954 0H9.59517C4.3045 0 0 4.3045 0 9.59517V26.7954C0 32.0861 4.3045 36.3906 9.59517 36.3906H26.7954C32.0861 36.3906 36.3906 32.0861 36.3906 26.7954V9.59517C36.3906 4.3045 32.0861 0 26.7954 0ZM29.9938 23.597C29.9938 27.1241 27.1241 29.9938 23.597 29.9938H12.7936C9.26644 29.9938 6.39678 27.1241 6.39678 23.597V12.7936C6.39678 9.26644 9.26644 6.39678 12.7936 6.39678H23.597C27.1241 6.39678 29.9938 9.26644 29.9938 12.7936V23.597Z" fill="#134A70"/>
</svg>
