<svg width="37" height="37" viewBox="0 0 37 37" fill="none" xmlns="http://www.w3.org/2000/svg">
<path d="M34.3808 0H2.00852C0.899997 0 0 0.898199 0 2.00852V34.3808C0 35.4912 0.899997 36.3906 2.00852 36.3906H19.4368V22.298H14.6948V16.8051H19.4368V12.7546C19.4368 8.05503 22.3064 5.49465 26.4996 5.49465C28.5099 5.49465 30.2338 5.64505 30.7365 5.71037V10.6226L27.828 10.6238C25.5481 10.6238 25.1082 11.7078 25.1082 13.2974V16.8033H30.5478L29.8365 22.2956H25.1076V36.3888H34.3802C35.49 36.3888 36.3906 35.4882 36.3906 34.3808V2.00732C36.39 0.898199 35.4906 0 34.3808 0Z" fill="#134A70"/>
</svg>
