<svg width="37" height="36" viewBox="0 0 37 36" fill="none" xmlns="http://www.w3.org/2000/svg">
<path d="M34.3315 0H2.66846C1.19464 0 0 1.16235 0 2.59634V33.4037C0 34.8376 1.19464 36 2.66846 36H34.3315C35.8054 36 37 34.8376 37 33.4037V2.59634C37 1.16235 35.8054 0 34.3315 0V0ZM26.9469 14.0345C26.9551 14.2116 26.959 14.3896 26.959 14.5684C26.959 20.0278 22.688 26.3232 14.8774 26.3235H14.8777H14.8774C12.4794 26.3235 10.2479 25.6396 8.3687 24.4677C8.70095 24.5058 9.03913 24.5248 9.38155 24.5248C11.3711 24.5248 13.202 23.8645 14.6555 22.7563C12.7967 22.7227 11.2294 21.5283 10.6885 19.8866C10.9474 19.935 11.2136 19.9613 11.4866 19.9613C11.8741 19.9613 12.2496 19.9105 12.6064 19.8158C10.6634 19.4373 9.19975 17.7665 9.19975 15.7659C9.19975 15.7473 9.19975 15.7305 9.20032 15.7132C9.77251 16.0227 10.4269 16.209 11.1235 16.2298C9.98338 15.4896 9.23391 14.2243 9.23391 12.7908C9.23391 12.0339 9.44421 11.3247 9.80893 10.7141C11.9029 13.2141 15.0324 14.8582 18.5615 15.0309C18.4887 14.7283 18.4512 14.413 18.4512 14.0889C18.4512 11.8081 20.3529 9.95773 22.6979 9.95773C23.9194 9.95773 25.0225 10.4601 25.7974 11.2632C26.7648 11.0775 27.6732 10.7336 28.4938 10.2604C28.1763 11.2247 27.5033 12.0339 26.6265 12.5456C27.4855 12.4456 28.3041 12.2239 29.0649 11.8949C28.4967 12.7235 27.776 13.4514 26.9469 14.0345Z" fill="#134A70"/>
</svg>
